<svg xmlns="http://www.w3.org/2000/svg" viewBox="0 0 71.08 20.57"><defs><style>.cls-1,.cls-2{fill:#0094c9;}.cls-1,.cls-3{fill-rule:evenodd;}.cls-3{fill:#f7941d;}</style></defs><title>kawn_logo_text_color</title><g id="Layer_2" data-name="Layer 2"><g id="Layer_1-2" data-name="Layer 1"><path class="cls-1" d="M30.29,20.57A1.61,1.61,0,0,0,31.9,19V3.85a1.61,1.61,0,1,0-3.21,0v.59a9.17,9.17,0,1,0,0,13.93V19A1.61,1.61,0,0,0,30.29,20.57Zm-7.55-3.21a6,6,0,1,1,6-5.95A6,6,0,0,1,22.74,17.36Z"/><path class="cls-2" d="M64,2.24a7.1,7.1,0,0,0-7.09,7.1V19a1.61,1.61,0,1,0,3.21,0V9.34a3.89,3.89,0,1,1,7.77,0v1h0V19a1.61,1.61,0,1,0,3.21,0V10.09C71.08,5.8,68.55,2.24,64,2.24Z"/><path class="cls-2" d="M7.28,11.43,12.67,4.9a1.6,1.6,0,1,0-2.49-2l-7,8.42V1.61A1.61,1.61,0,1,0,0,1.61V19a1.61,1.61,0,1,0,3.21,0V11.55l7,8.43a1.61,1.61,0,1,0,2.49-2Z"/><path class="cls-3" d="M36.68,3.22a1.61,1.61,0,1,0-3,1.26l6.47,15.07a1.62,1.62,0,0,0,3,0L45,15.22l1.86,4.33a1.62,1.62,0,0,0,3,0L56.32,4.48a1.61,1.61,0,1,0-3-1.26l-5,11.65-1.6-3.72,2.86-6.67a1.61,1.61,0,0,0-3-1.26L45,7.07,43.37,3.22a1.61,1.61,0,1,0-3,1.26l2.86,6.67-1.59,3.72Z"/></g></g></svg>